<?xml version="1.0" encoding="UTF-8" standalone="no"?>
<svg
   xmlns:dc="http://purl.org/dc/elements/1.1/"
   xmlns:cc="http://creativecommons.org/ns#"
   xmlns:rdf="http://www.w3.org/1999/02/22-rdf-syntax-ns#"
   xmlns:svg="http://www.w3.org/2000/svg"
   xmlns="http://www.w3.org/2000/svg"
   id="svg8"
   version="1.1"
   viewBox="0 0 78.279602 72.997383"
   height="72.997383mm"
   width="78.279602mm">
  <defs
     id="defs2" />
  <metadata
     id="metadata5">
    <rdf:RDF>
      <cc:Work
         rdf:about="">
        <dc:format>image/svg+xml</dc:format>
        <dc:type
           rdf:resource="http://purl.org/dc/dcmitype/StillImage" />
        <dc:title></dc:title>
      </cc:Work>
    </rdf:RDF>
  </metadata>
  <g
     transform="translate(-69.374029,-88.236314)"
     id="layer1">
    <g
       style="fill:#a02c2c"
       id="g34">
      <path
         id="path10"
         style="fill:#a02c2c;stroke-width:0.264583"
         d="m 96.468617,93.79637 c 8.685583,2.118686 17.554233,3.384712 26.484023,3.835708 6.48706,0.513518 12.97949,1.216857 19.46548,1.599161 1.11219,-1.327601 4.43294,-3.735762 1.04497,-1.272578 -1.32685,0.955791 -2.62727,1.947534 -0.50224,0.407093 1.2277,-0.78967 3.32104,-2.41991 0.70633,-0.961044 -6.58457,3.99366 -11.28853,10.43086 -14.51637,17.31199 -5.07644,10.50542 -9.64371,21.28578 -12.93967,32.49317 -1.20193,3.94122 -2.64324,7.8185 -3.67097,11.80684 1.61558,1.13912 5.74981,-2.54765 2.05737,-3.16584 -5.38113,-2.48475 -11.46373,-1.52379 -17.202172,-1.85002 -6.308996,-0.041 -12.64132,0.081 -18.83886,1.38945 -2.330599,0.15167 -6.602793,1.32852 -7.095706,3.36959 3.520132,0.21195 4.658663,-4.86215 6.331964,-7.41202 2.40339,-5.07692 3.35892,-10.70243 5.273709,-15.972 2.473405,-7.00948 4.897582,-14.03599 6.811079,-21.22337 2.397389,-7.22239 4.330504,-14.584091 6.353002,-21.914908 1.45907,-2.432008 1.113711,-2.330306 -0.95306,-1.361726 -2.479821,0.295402 -2.80977,2.951963 -3.322608,4.976463 -2.193581,9.867691 -5.839096,19.322951 -8.375642,29.098171 -2.751434,8.20244 -5.585777,16.38003 -8.085239,24.66636 -0.968845,2.94197 -2.617961,5.57894 -4.119354,8.26296 -0.06082,0.91967 4.343769,-3.55773 3.407188,-0.98527 -1.618085,1.064 -4.636724,2.27666 -0.966388,1.18095 5.856305,-1.10133 11.771156,-1.92646 17.74722,-1.75455 6.509494,0.25724 13.439517,-0.94122 19.569567,1.79762 1.79444,2.62825 2.96463,-3.10824 5.21963,-1.00892 3.67803,-15.22814 9.49095,-29.8729 16.28272,-43.96606 2.93729,-6.18297 7.22707,-11.74729 12.65633,-15.91104 -1.17524,0.513752 -5.35796,3.09658 -2.10147,0.966531 1.52466,-1.038284 3.25166,-2.266466 0.65198,-0.481739 -1.68241,1.132461 -2.85173,1.994962 -0.47501,0.366016 1.1227,-0.919146 4.03535,-1.855975 0.82423,-1.364909 -9.50945,-0.39588 -18.97659,-1.495042 -28.46462,-2.221062 -5.36688,-0.48959 -10.63509,-1.64534 -15.80596,-3.134342 -1.150436,0.810996 -2.301256,1.622889 -3.451453,2.433325 z" />
      <path
         id="path12"
         style="fill:#a02c2c;stroke-width:0.264583"
         d="m 97.567992,104.89976 c 3.185828,1.34491 6.151928,-0.75235 9.238208,0.7671 2.73593,-0.61945 5.46388,1.67188 8.06407,-0.28544 2.6531,3.73266 7.26693,0.37264 10.97564,1.59443 1.82903,0.37184 3.22573,-0.50054 4.51331,-1.67038 3.10713,-1.84498 -2.63118,-0.16049 -3.81972,-0.87902 -2.97491,-0.78006 -6.50562,2.02475 -8.42604,-1.59356 -3.08562,2.08162 -6.28192,-0.2659 -9.57892,0.19844 -2.39934,-1.56477 -5.13256,0.91502 -7.67091,-0.4439 -1.098525,0.77079 -2.197241,1.54148 -3.295638,2.31233 z" />
      <path
         id="path14"
         style="fill:#a02c2c;stroke-width:0.264583"
         d="m 98.264032,115.74337 c 2.605038,2.68194 6.485928,-2.2303 9.205658,0.96337 3.85161,-0.42059 7.86949,-1.40799 11.59779,-0.46861 1.80571,0.83644 2.99996,-0.95019 4.43895,-1.71716 1.27638,-0.91716 -3.0792,-0.86312 -3.9888,-1.44749 -3.20356,0.85207 -6.49453,0.67352 -9.71265,1.04329 -2.11703,-3.19375 -5.6825,1.77013 -7.89815,-0.5084 -1.21414,0.71174 -2.429275,1.42291 -3.642798,2.135 z" />
      <path
         id="path16"
         style="fill:#a02c2c;stroke-width:0.264583"
         d="m 92.575882,126.83195 c 2.82531,3.60444 6.921628,-1.01207 9.616548,-2.62855 2.29263,-0.98815 -4.233297,1.32312 -1.94202,1.95073 1.83819,2.54135 5.96192,0.37728 8.66545,0.25906 3.25494,0.0862 6.13502,2.13203 8.90041,-0.71649 2.14156,-1.38775 -1.38872,0.3227 -2.27013,0.59462 -3.21975,1.38616 4.43461,-2.11987 1.44999,-1.33306 -2.7561,-1.68147 -5.99648,-0.50628 -9.03386,-0.42407 -2.15193,0.54026 -3.93756,0.74125 -5.11359,-1.47783 -1.69898,0.87702 -5.222749,2.94856 -5.440181,3.52697 1.138944,-0.69517 3.773441,-2.01026 1.141426,-0.70569 -1.868834,-0.58437 -2.88265,-1.57901 -4.62099,0.14553 -0.450992,0.26961 -0.90219,0.5391 -1.353053,0.80878 z" />
      <path
         id="path18"
         style="fill:#a02c2c;stroke-width:0.131446"
         d="m 98.521822,136.00691 c 0.782268,-2.13327 0.370359,-1.34691 -0.629654,-0.99187 3.528492,-2.60252 7.496502,2.6485 3.252692,4.67325 -3.476255,1.75575 3.55738,-1.45741 -0.23163,0.18386 -2.994884,-0.0121 -3.03966,5.30051 -0.28247,2.58192 0.42076,-0.0326 -0.36966,-2.62023 1.45026,-2.77816 -1.49352,0.66976 -3.236761,1.44504 -0.81154,0.42162 4.39118,-0.38389 5.427,-7.59973 0.0321,-6.62479 -1.762225,-0.44192 -7.082029,3.45096 -3.802199,2.92355 0.340804,-0.12977 0.681585,-0.2597 1.022401,-0.38938 z" />
      <path
         id="path20"
         style="fill:#a02c2c;stroke-width:0.131446"
         d="m 100.88739,145.40244 c -2.017682,0.0679 -4.437193,3.2955 -1.193208,1.21001 1.971028,-1.18676 -3.77187,0.44963 -0.205933,1.01692 -0.0088,0.53625 3.557311,-1.68394 0.838471,-0.43925 -2.442483,0.7145 3.56403,-0.68631 -0.12341,-1.3236 -1.719281,0.0894 -3.348355,2.19572 -0.741087,0.82706 2.943337,-1.63084 -0.203313,-0.35326 -0.120723,-0.36685 0.515241,-0.30803 1.03094,-0.61662 1.54589,-0.92429 z" />
    </g>
  </g>
</svg>
